<?xml version="1.0" encoding="UTF-8" standalone="no"?>
<svg
   xmlns:dc="http://purl.org/dc/elements/1.1/"
   xmlns:cc="http://creativecommons.org/ns#"
   xmlns:rdf="http://www.w3.org/1999/02/22-rdf-syntax-ns#"
   xmlns:svg="http://www.w3.org/2000/svg"
   xmlns="http://www.w3.org/2000/svg"
   xmlns:sodipodi="http://sodipodi.sourceforge.net/DTD/sodipodi-0.dtd"
   xmlns:inkscape="http://www.inkscape.org/namespaces/inkscape"
   viewBox="0 0 128 128"
   version="1.1"
   id="svg66"
   sodipodi:docname="teacher.svg"
   inkscape:version="0.92.2 (5c3e80d, 2017-08-06)">
  <metadata
     id="metadata70">
    <rdf:RDF>
      <cc:Work
         rdf:about="">
        <dc:format>image/svg+xml</dc:format>
        <dc:type
           rdf:resource="http://purl.org/dc/dcmitype/StillImage" />
        <dc:title></dc:title>
      </cc:Work>
    </rdf:RDF>
  </metadata>
  <sodipodi:namedview
     pagecolor="#ffffff"
     bordercolor="#666666"
     borderopacity="1"
     objecttolerance="10"
     gridtolerance="10"
     guidetolerance="10"
     inkscape:pageopacity="0"
     inkscape:pageshadow="2"
     inkscape:window-width="640"
     inkscape:window-height="480"
     id="namedview68"
     showgrid="false"
     inkscape:zoom="1.179432"
     inkscape:cx="53.76327"
     inkscape:cy="40.478095"
     inkscape:current-layer="svg66" />
  <defs
     id="defs42">
    <linearGradient
       id="n"
       x1="-27.90552"
       x2="69.989257"
       y1="25.181488"
       y2="57.123049"
       gradientTransform="scale(0.87633841,1.1411117)"
       gradientUnits="userSpaceOnUse">
      <stop
         stop-color="#fff"
         offset="0"
         id="stop2" />
      <stop
         stop-color="#fff"
         stop-opacity="0"
         offset="1"
         id="stop4" />
    </linearGradient>
    <linearGradient
       id="j"
       x1="35.529667"
       x2="35.510081"
       y1="205.62785"
       y2="133.44061"
       gradientTransform="scale(1.6882467,0.5923305)"
       gradientUnits="userSpaceOnUse">
      <stop
         offset="0"
         id="stop7" />
      <stop
         stop-color="#747474"
         offset="1"
         id="stop9" />
    </linearGradient>
    <linearGradient
       id="l"
       x1="71.119488"
       x2="77.53991"
       y1="73.605971"
       y2="13.0924"
       gradientTransform="scale(0.87424636,1.1438423)"
       gradientUnits="userSpaceOnUse">
      <stop
         stop-color="#d49c56"
         offset="0"
         id="stop12" />
      <stop
         stop-color="#d49c56"
         stop-opacity="0"
         offset="1"
         id="stop14" />
    </linearGradient>
    <linearGradient
       id="m"
       x1="56.976188"
       x2="71.72832"
       y1="104.18538"
       y2="90.802294"
       gradientTransform="scale(1.3471115,0.74232905)"
       gradientUnits="userSpaceOnUse">
      <stop
         stop-color="#9f5f09"
         offset="0"
         id="stop17" />
      <stop
         stop-color="#9f5f09"
         stop-opacity="0"
         offset="1"
         id="stop19" />
    </linearGradient>
    <linearGradient
       id="k"
       x1="81.332833"
       x2="79.191996"
       y1="62.567303"
       y2="84.408036"
       gradientTransform="scale(0.77958431,1.2827349)"
       gradientUnits="userSpaceOnUse">
      <stop
         stop-color="#d49c56"
         offset="0"
         id="stop22" />
      <stop
         stop-color="#d49c56"
         stop-opacity=".258"
         offset="1"
         id="stop24" />
    </linearGradient>
    <linearGradient
       id="i"
       x1="63.573692"
       x2="51.125283"
       y1="19.993242"
       y2="36.350735"
       gradientTransform="scale(0.61253392,1.6325627)"
       gradientUnits="userSpaceOnUse">
      <stop
         stop-color="#da8410"
         offset="0"
         id="stop27" />
      <stop
         stop-color="#c97402"
         stop-opacity="0"
         offset="1"
         id="stop29" />
    </linearGradient>
    <radialGradient
       id="o"
       cx="-164.86"
       cy="72.644"
       r="15.009"
       gradientTransform="matrix(0.1038,0.081452,-0.21402,0.27274,-132.2,63.745)"
       gradientUnits="userSpaceOnUse">
      <stop
         stop-color="#ffeed6"
         offset="0"
         id="stop32" />
      <stop
         stop-color="#ffcd8b"
         offset="1"
         id="stop34" />
    </radialGradient>
    <radialGradient
       id="p"
       cx="-165.24"
       cy="33.695"
       r="21.607"
       gradientTransform="matrix(0.7193,-0.017199,0.035132,1.4693,-47.567,-19.6)"
       gradientUnits="userSpaceOnUse">
      <stop
         stop-color="#ffeed6"
         offset="0"
         id="stop37" />
      <stop
         stop-color="#ffcd8b"
         offset="1"
         id="stop39" />
    </radialGradient>
    <linearGradient
       gradientUnits="userSpaceOnUse"
       y2="48.76"
       y1="16.796"
       x2="-172.04"
       x1="-247.28"
       id="c">
      <stop
         id="stop918"
         offset="0"
         stop-color="#fff" />
      <stop
         id="stop920"
         offset="1"
         stop-opacity="0"
         stop-color="#fff" />
    </linearGradient>
    <linearGradient
       gradientUnits="userSpaceOnUse"
       gradientTransform="translate(-199.99,52.32)"
       y2="-10.638"
       y1="-31.888"
       x2="1.6168"
       x1="8.3036"
       id="h">
      <stop
         id="stop923"
         offset="0"
         stop-color="#da8410" />
      <stop
         id="stop925"
         offset="1"
         stop-opacity="0"
         stop-color="#c97402" />
    </linearGradient>
    <linearGradient
       gradientUnits="userSpaceOnUse"
       gradientTransform="translate(-331.42,73.067)"
       y2="-11.643"
       y1="24.964"
       x2="158.4"
       x1="158.43"
       id="g">
      <stop
         id="stop928"
         offset="0" />
      <stop
         id="stop930"
         offset="1"
         stop-color="#747474" />
    </linearGradient>
    <linearGradient
       gradientUnits="userSpaceOnUse"
       gradientTransform="translate(-331.42,73.067)"
       y2="-67.703"
       y1="-8.082"
       x2="164.94"
       x1="160.12"
       id="e">
      <stop
         id="stop933"
         offset="0"
         stop-color="#d49c56" />
      <stop
         id="stop935"
         offset="1"
         stop-opacity="0"
         stop-color="#d49c56" />
    </linearGradient>
    <linearGradient
       gradientUnits="userSpaceOnUse"
       gradientTransform="translate(-199.99,52.32)"
       y2="-1.6124"
       y1="7.1002"
       x2="56.009"
       x1="40.538"
       id="d">
      <stop
         id="stop938"
         offset="0"
         stop-color="#9f5f09" />
      <stop
         id="stop940"
         offset="1"
         stop-opacity="0"
         stop-color="#9f5f09" />
    </linearGradient>
    <linearGradient
       gradientUnits="userSpaceOnUse"
       gradientTransform="translate(-331.42,73.067)"
       y2="13.312"
       y1="-10.795"
       x2="159.79"
       x1="161.21"
       id="f">
      <stop
         id="stop943"
         offset="0"
         stop-color="#d49c56" />
      <stop
         id="stop945"
         offset="1"
         stop-opacity=".258"
         stop-color="#d49c56" />
    </linearGradient>
    <linearGradient
       gradientUnits="userSpaceOnUse"
       gradientTransform="translate(-199.99,52.32)"
       y2="-25.337"
       y1="5.3772"
       x2="27.385"
       x1="-13.709"
       id="i-3">
      <stop
         id="stop948"
         offset="0"
         stop-color="#664314" />
      <stop
         id="stop950"
         offset="1"
         stop-color="#a06b08" />
    </linearGradient>
    <radialGradient
       gradientUnits="userSpaceOnUse"
       gradientTransform="matrix(0.7193,-0.017199,0.035132,1.4693,-47.567,-19.6)"
       r="21.607"
       cy="33.695"
       cx="-165.24"
       id="a">
      <stop
         id="stop953"
         offset="0"
         stop-color="#ffeed6" />
      <stop
         id="stop955"
         offset="1"
         stop-color="#ffcd8b" />
    </radialGradient>
    <radialGradient
       gradientUnits="userSpaceOnUse"
       gradientTransform="matrix(0.1038,0.081452,-0.21402,0.27274,-132.2,63.745)"
       r="15.009"
       cy="72.644"
       cx="-164.86"
       id="b">
      <stop
         id="stop958"
         offset="0"
         stop-color="#ffeed6" />
      <stop
         id="stop960"
         offset="1"
         stop-color="#ffcd8b" />
    </radialGradient>
  </defs>
  <g
     id="g64"
     style="fill-rule:evenodd"
     transform="matrix(1.0347418,0,0,1.0345281,-210.79798,-1.9143632)">
    <path
       d="m 7.7305,64.882 c 8.5134,0.0813 18.3,-1.8734 20.252,-10.268 1.9076,-8.2015 0.91294,-50.654 31.15,-51.645 29.016,-0.95116 36.592,23.32 39.086,36.611 8.0163,42.706 -2.5234,71.462 -63.259,54.153 -6.888,-3.9768 -11.022,-4.164 -15.705,-10.479 4.1206,0.11259 6.2768,0.38872 6.8952,-3.6722 -5.4865,0.22398 -10.855,-0.27739 -12.948,-9.8053 10.002,1.3822 14.595,-2.9453 18.862,-9.5029 -5.0646,7.9568 -11.028,12.421 -24.333,4.6074 z"
       id="path44"
       inkscape:connector-curvature="0"
       style="fill:#f9f986" />
    <path
       d="m 28.556,57.189 c 4.4208,-5.9145 5.7857,-13.277 6.9232,-21.94 3.06,8.454 3.2996,16.882 -2.2399,24.18"
       id="path46"
       inkscape:connector-curvature="0"
       style="fill:url(#i)" />
    <path
       d="m 3.6013,118.62 c 2.7927,-7.7114 4.0292,-18.026 13.643,-22.806 l 44.593,-13.541 46.574,12.853 c 8.1954,2.9422 12.069,14.888 15.987,23.923 -2.5522,1.8322 -4.752,4.5456 -7.7871,5.1707 H 10.9312 C 7.4993,122.9462 5.761,120.6566 3.6008,118.6201 Z"
       id="path48"
       inkscape:connector-curvature="0"
       style="fill:url(#j);stroke:#000000" />
    <path
       d="m 48.704,72.396 c 0.23771,5.7693 0.87025,11.094 -1.8326,15.984 l 6.5159,36.041 14.966,-0.2036 11.606,-38.383 -1.0181,-16.493 -30.238,3.0543 z"
       id="path50"
       inkscape:connector-curvature="0"
       style="fill:url(#o);stroke:url(#k)" />
    <path
       d="m 38.111,41.413 c 0.58197,9.1189 0.8372,18.238 2.8797,27.357 0,0 9.2868,10.442 14.47,12.742 5.1835,2.301 6.6343,1.989 11.519,-0.07198 4.8843,-2.061 16.198,-12.095 16.198,-12.095 4.8626,-19.716 6.5261,-38.38 -15.118,-49.386 l -15.694,23.325 -0.432,-9.0709 -4.0315,6.9112 c -2.7285,-3.3124 -7.9646,-2.2117 -9.7908,0.28796 z"
       id="path52"
       inkscape:connector-curvature="0"
       style="fill:url(#p);stroke:url(#l)" />
    <path
       d="m 93.104,63.298 c -4.1127,9.7071 -15.214,13.559 -25.758,11.81 10.214,8.0444 25.42,4.274 29.016,-9.5702"
       id="path54"
       inkscape:connector-curvature="0"
       style="fill:url(#m)" />
    <path
       d="m 38.059,41.461 c 0.96208,8.972 1.4557,17.788 3.4799,27.114 5.1577,5.3491 15.701,17.02 21.957,13.462 3.9872,-0.90865 5.1187,-2.2252 7.4088,-3.3764 -13.766,4.0898 -19.126,-3.1803 -26.222,-11.508 l -4.6841,-27.223 -1.9402,1.5308 z"
       id="path56"
       inkscape:connector-curvature="0"
       style="fill:url(#n)" />
    <g
       id="g62"
       style="fill:none;stroke:#000000">
      <path
         d="M 79.7,86.665 68.45,124.386"
         id="path58"
         inkscape:connector-curvature="0" />
      <path
         d="m 46.29,86.86 6.8877,37.627"
         id="path60"
         inkscape:connector-curvature="0" />
    </g>
  </g>
  <g
     id="g985"
     style="fill-rule:evenodd"
     transform="matrix(0.35000513,0,0,0.35000513,-52.200302,-10.57199)">
    <path
       style="fill:url(#i-3)"
       id="path965"
       d="m 166.73,216.35 c 25.005,0.22936 53.748,-5.2846 59.483,-28.964 5.603,-23.135 2.6814,-142.89 91.49,-145.68 85.225,-2.6831 107.47,65.783 114.8,103.28 23.545,120.47 -7.4115,201.58 -185.8,152.76 -20.231,-11.218 -32.374,-11.746 -46.128,-29.56 12.103,0.31766 18.436,1.0965 20.252,-10.359 -16.115,0.63174 -31.883,-0.78253 -38.031,-27.66 29.378,3.8991 42.867,-8.3083 55.399,-26.806 -14.875,22.445 -32.39,35.039 -71.469,12.997 z"
       inkscape:connector-curvature="0" />
    <path
       id="path967"
       d="m 227.9,194.65 c 12.984,-16.684 16.993,-37.452 20.334,-61.891 8.9875,23.848 9.6912,47.623 -6.5787,68.209"
       inkscape:connector-curvature="0"
       style="fill:url(#h)" />
    <path
       id="path969"
       d="m 154.6,367.93 c 8.2026,-21.753 11.834,-50.849 40.07,-64.332 l 130.98,-38.197 136.79,36.256 c 24.071,8.2994 35.449,41.996 46.957,67.482 -7.4963,5.1683 -13.957,12.823 -22.872,14.586 h -310.4 c -10.08,-3.5922 -15.186,-10.051 -21.53,-15.796 z"
       inkscape:connector-curvature="0"
       style="fill:url(#g);stroke:#000000" />
    <path
       id="path971"
       d="m 287.07,237.54 c 0.69815,16.274 2.556,31.295 -5.3826,45.09 l 19.138,101.67 43.958,-0.5745 34.09,-108.27 -2.9904,-46.526 -88.813,8.6158 z"
       inkscape:connector-curvature="0"
       style="fill:url(#b);stroke:url(#f)" />
    <path
       id="path973"
       d="m 255.96,150.14 c 1.7094,25.723 2.459,51.446 8.458,77.17 0,0 27.276,29.454 42.501,35.945 15.224,6.4909 19.486,5.6106 33.832,-0.20306 14.346,-5.81366 47.576,-34.117 47.576,-34.117 14.282,-55.615 19.168,-108.26 -44.404,-139.31 l -46.096,65.797 -1.2688,-25.588 -11.841,19.496 c -8.014,-9.3439 -23.393,-6.239 -28.757,0.8123 z"
       inkscape:connector-curvature="0"
       style="fill:url(#a);stroke:url(#e)" />
    <path
       id="path975"
       d="m 417.48,211.88 c -12.08,27.382 -44.687,38.247 -75.655,33.315 30,22.692 74.661,12.056 85.224,-26.996"
       inkscape:connector-curvature="0"
       style="fill:url(#d)" />
    <path
       id="path977"
       d="m 255.81,150.28 c 2.8258,25.309 4.2757,50.177 10.221,76.484 15.149,15.089 46.115,48.012 64.492,37.976 11.711,-2.5632 15.034,-6.2772 21.76,-9.5242 -40.431,11.537 -56.176,-8.9712 -77.016,-32.463 l -13.758,-76.791 -5.6987,4.3181 z"
       inkscape:connector-curvature="0"
       style="fill:url(#c)" />
    <g
       id="g983"
       style="fill:none;stroke:#000000">
      <path
         id="path979"
         d="M 378.11,277.79 345.067,384.2"
         inkscape:connector-curvature="0" />
      <path
         id="path981"
         d="m 279.98,278.35 20.23,106.14"
         inkscape:connector-curvature="0" />
    </g>
  </g>
</svg>
