<?xml version="1.0" encoding="UTF-8" standalone="no"?>
<svg
   xmlns:dc="http://purl.org/dc/elements/1.1/"
   xmlns:cc="http://creativecommons.org/ns#"
   xmlns:rdf="http://www.w3.org/1999/02/22-rdf-syntax-ns#"
   xmlns:svg="http://www.w3.org/2000/svg"
   xmlns="http://www.w3.org/2000/svg"
   xmlns:sodipodi="http://sodipodi.sourceforge.net/DTD/sodipodi-0.dtd"
   xmlns:inkscape="http://www.inkscape.org/namespaces/inkscape"
   viewBox="0 0 128 128"
   version="1.1"
   id="svg66"
   sodipodi:docname="user-310807.svg"
   inkscape:version="0.92.2 (5c3e80d, 2017-08-06)">
  <metadata
     id="metadata70">
    <rdf:RDF>
      <cc:Work
         rdf:about="">
        <dc:format>image/svg+xml</dc:format>
        <dc:type
           rdf:resource="http://purl.org/dc/dcmitype/StillImage" />
        <dc:title></dc:title>
      </cc:Work>
    </rdf:RDF>
  </metadata>
  <sodipodi:namedview
     pagecolor="#ffffff"
     bordercolor="#666666"
     borderopacity="1"
     objecttolerance="10"
     gridtolerance="10"
     guidetolerance="10"
     inkscape:pageopacity="0"
     inkscape:pageshadow="2"
     inkscape:window-width="640"
     inkscape:window-height="480"
     id="namedview68"
     showgrid="false"
     inkscape:zoom="3.3359375"
     inkscape:cx="58.754098"
     inkscape:cy="64"
     inkscape:current-layer="svg66" />
  <defs
     id="defs42">
    <linearGradient
       id="n"
       x1="-27.90552"
       x2="69.989257"
       y1="25.181488"
       y2="57.123049"
       gradientTransform="scale(0.87633841,1.1411117)"
       gradientUnits="userSpaceOnUse">
      <stop
         stop-color="#fff"
         offset="0"
         id="stop2" />
      <stop
         stop-color="#fff"
         stop-opacity="0"
         offset="1"
         id="stop4" />
    </linearGradient>
    <linearGradient
       id="j"
       x1="35.529667"
       x2="35.510081"
       y1="205.62785"
       y2="133.44061"
       gradientTransform="scale(1.6882467,0.5923305)"
       gradientUnits="userSpaceOnUse">
      <stop
         offset="0"
         id="stop7" />
      <stop
         stop-color="#747474"
         offset="1"
         id="stop9" />
    </linearGradient>
    <linearGradient
       id="l"
       x1="71.119488"
       x2="77.53991"
       y1="73.605971"
       y2="13.0924"
       gradientTransform="scale(0.87424636,1.1438423)"
       gradientUnits="userSpaceOnUse">
      <stop
         stop-color="#d49c56"
         offset="0"
         id="stop12" />
      <stop
         stop-color="#d49c56"
         stop-opacity="0"
         offset="1"
         id="stop14" />
    </linearGradient>
    <linearGradient
       id="m"
       x1="56.976188"
       x2="71.72832"
       y1="104.18538"
       y2="90.802294"
       gradientTransform="scale(1.3471115,0.74232905)"
       gradientUnits="userSpaceOnUse">
      <stop
         stop-color="#9f5f09"
         offset="0"
         id="stop17" />
      <stop
         stop-color="#9f5f09"
         stop-opacity="0"
         offset="1"
         id="stop19" />
    </linearGradient>
    <linearGradient
       id="k"
       x1="81.332833"
       x2="79.191996"
       y1="62.567303"
       y2="84.408036"
       gradientTransform="scale(0.77958431,1.2827349)"
       gradientUnits="userSpaceOnUse">
      <stop
         stop-color="#d49c56"
         offset="0"
         id="stop22" />
      <stop
         stop-color="#d49c56"
         stop-opacity=".258"
         offset="1"
         id="stop24" />
    </linearGradient>
    <linearGradient
       id="i"
       x1="63.573692"
       x2="51.125283"
       y1="19.993242"
       y2="36.350735"
       gradientTransform="scale(0.61253392,1.6325627)"
       gradientUnits="userSpaceOnUse">
      <stop
         stop-color="#da8410"
         offset="0"
         id="stop27" />
      <stop
         stop-color="#c97402"
         stop-opacity="0"
         offset="1"
         id="stop29" />
    </linearGradient>
    <radialGradient
       id="o"
       cx="-164.86"
       cy="72.644"
       r="15.009"
       gradientTransform="matrix(0.1038,0.081452,-0.21402,0.27274,-132.2,63.745)"
       gradientUnits="userSpaceOnUse">
      <stop
         stop-color="#ffeed6"
         offset="0"
         id="stop32" />
      <stop
         stop-color="#ffcd8b"
         offset="1"
         id="stop34" />
    </radialGradient>
    <radialGradient
       id="p"
       cx="-165.24"
       cy="33.695"
       r="21.607"
       gradientTransform="matrix(0.7193,-0.017199,0.035132,1.4693,-47.567,-19.6)"
       gradientUnits="userSpaceOnUse">
      <stop
         stop-color="#ffeed6"
         offset="0"
         id="stop37" />
      <stop
         stop-color="#ffcd8b"
         offset="1"
         id="stop39" />
    </radialGradient>
  </defs>
  <g
     id="g64"
     style="fill-rule:evenodd"
     transform="matrix(1.0347418,0,0,1.0345281,-2.2230096,-1.9143632)">
    <path
       d="m 7.7305,64.882 c 8.5134,0.0813 18.3,-1.8734 20.252,-10.268 1.9076,-8.2015 0.91294,-50.654 31.15,-51.645 29.016,-0.95116 36.592,23.32 39.086,36.611 8.0163,42.706 -2.5234,71.462 -63.259,54.153 -6.888,-3.9768 -11.022,-4.164 -15.705,-10.479 4.1206,0.11259 6.2768,0.38872 6.8952,-3.6722 -5.4865,0.22398 -10.855,-0.27739 -12.948,-9.8053 10.002,1.3822 14.595,-2.9453 18.862,-9.5029 -5.0646,7.9568 -11.028,12.421 -24.333,4.6074 z"
       id="path44"
       inkscape:connector-curvature="0"
       style="fill:#f9f986" />
    <path
       d="m 28.556,57.189 c 4.4208,-5.9145 5.7857,-13.277 6.9232,-21.94 3.06,8.454 3.2996,16.882 -2.2399,24.18"
       id="path46"
       inkscape:connector-curvature="0"
       style="fill:url(#i)" />
    <path
       d="m 3.6013,118.62 c 2.7927,-7.7114 4.0292,-18.026 13.643,-22.806 l 44.593,-13.541 46.574,12.853 c 8.1954,2.9422 12.069,14.888 15.987,23.923 -2.5522,1.8322 -4.752,4.5456 -7.7871,5.1707 H 10.9312 C 7.4993,122.9462 5.761,120.6566 3.6008,118.6201 Z"
       id="path48"
       inkscape:connector-curvature="0"
       style="fill:url(#j);stroke:#000000" />
    <path
       d="m 48.704,72.396 c 0.23771,5.7693 0.87025,11.094 -1.8326,15.984 l 6.5159,36.041 14.966,-0.2036 11.606,-38.383 -1.0181,-16.493 -30.238,3.0543 z"
       id="path50"
       inkscape:connector-curvature="0"
       style="fill:url(#o);stroke:url(#k)" />
    <path
       d="m 38.111,41.413 c 0.58197,9.1189 0.8372,18.238 2.8797,27.357 0,0 9.2868,10.442 14.47,12.742 5.1835,2.301 6.6343,1.989 11.519,-0.07198 4.8843,-2.061 16.198,-12.095 16.198,-12.095 4.8626,-19.716 6.5261,-38.38 -15.118,-49.386 l -15.694,23.325 -0.432,-9.0709 -4.0315,6.9112 c -2.7285,-3.3124 -7.9646,-2.2117 -9.7908,0.28796 z"
       id="path52"
       inkscape:connector-curvature="0"
       style="fill:url(#p);stroke:url(#l)" />
    <path
       d="m 93.104,63.298 c -4.1127,9.7071 -15.214,13.559 -25.758,11.81 10.214,8.0444 25.42,4.274 29.016,-9.5702"
       id="path54"
       inkscape:connector-curvature="0"
       style="fill:url(#m)" />
    <path
       d="m 38.059,41.461 c 0.96208,8.972 1.4557,17.788 3.4799,27.114 5.1577,5.3491 15.701,17.02 21.957,13.462 3.9872,-0.90865 5.1187,-2.2252 7.4088,-3.3764 -13.766,4.0898 -19.126,-3.1803 -26.222,-11.508 l -4.6841,-27.223 -1.9402,1.5308 z"
       id="path56"
       inkscape:connector-curvature="0"
       style="fill:url(#n)" />
    <g
       id="g62"
       style="fill:none;stroke:#000000">
      <path
         d="M 79.7,86.665 68.45,124.386"
         id="path58"
         inkscape:connector-curvature="0" />
      <path
         d="m 46.29,86.86 6.8877,37.627"
         id="path60"
         inkscape:connector-curvature="0" />
    </g>
  </g>
</svg>
